<svg class="svg-icon" style="width: 1em;height: 1em;vertical-align: middle;fill: currentColor;overflow: hidden;" viewBox="0 0 1024 1024" version="1.1" xmlns="http://www.w3.org/2000/svg"><path d="M562.424242 326.206061a129.318788 129.318788 0 0 1-128.930909-122.104243A129.318788 129.318788 0 0 1 607.495758 318.060606a129.629091 129.629091 0 0 1-45.071516 7.757576z" fill="#38EBC4" /><path d="M478.564848 203.713939a121.561212 121.561212 0 0 1 120.707879 108.99394A121.328485 121.328485 0 0 1 441.716364 209.454545a120.707879 120.707879 0 0 1 36.848484-5.740606m0-15.515151a136.688485 136.688485 0 0 0-52.984242 10.705454A136.998788 136.998788 0 0 0 562.424242 333.963636a138.084848 138.084848 0 0 0 52.984243-10.627878 137.231515 137.231515 0 0 0-136.843637-135.13697z" fill="#352635" /><path d="M630.070303 328.998788a80.678788 80.678788 0 0 1-26.14303-4.344243 80.290909 80.290909 0 0 1 106.04606-69.818181 80.213333 80.213333 0 0 1-79.90303 73.852121z" fill="#38EBC4" /><path d="M683.830303 258.56a70.826667 70.826667 0 0 1 17.687273 2.172121 72.22303 72.22303 0 0 1-71.447273 60.509091 71.68 71.68 0 0 1-17.687273-2.172121 72.610909 72.610909 0 0 1 71.447273-60.509091m0-15.515152a87.815758 87.815758 0 0 0-87.893333 86.884849 88.048485 88.048485 0 0 0 122.104242-79.980606 88.126061 88.126061 0 0 0-34.210909-6.904243z" fill="#352635" /><path d="M582.050909 555.52m-232.494545 0a232.494545 232.494545 0 1 0 464.989091 0 232.494545 232.494545 0 1 0-464.989091 0Z" fill="#FFDD33" /><path d="M581.818182 330.78303a224.969697 224.969697 0 1 1-224.969697 224.969697 224.969697 224.969697 0 0 1 224.969697-224.969697m0-15.515151a240.484848 240.484848 0 1 0 240.484848 240.484848 240.484848 240.484848 0 0 0-240.484848-240.484848z" fill="#352635" /><path d="M401.92 828.043636a192.465455 192.465455 0 1 1 192.387879-192.465454 192.698182 192.698182 0 0 1-192.387879 192.465454z" fill="#FFFFFF" /><path d="M401.92 450.870303A184.707879 184.707879 0 1 1 217.212121 635.578182a184.86303 184.86303 0 0 1 184.707879-184.707879m0-15.515151a200.22303 200.22303 0 1 0 200.145455 200.22303 200.22303 200.22303 0 0 0-200.145455-200.22303z" fill="#352635" /><path d="M432.329697 653.498182l74.78303 89.212121a149.255758 149.255758 0 0 0 18.850909-22.574545 151.195152 151.195152 0 0 0 23.272728-56.863031l-86.729697-7.214545-30.487273-2.56zM251.733333 636.509091A149.953939 149.953939 0 0 0 278.729697 721.454545l88.669091-74.472727zM400.523636 485.469091a154.065455 154.065455 0 0 0-85.798788 27.849697l75.403637 89.910303zM434.967273 626.191515l11.636363 0.930909L552.029091 636.121212a150.652121 150.652121 0 0 0-26.763636-86.652121c-27.073939 22.807273-60.819394 51.432727-82.230303 69.818182-2.870303 2.637576-5.585455 4.964848-7.757576 6.981818z m0 0M374.30303 783.515152l10.162425-115.355152-88.436364 74.162424A150.729697 150.729697 0 0 0 374.30303 783.515152zM294.322424 530.773333a149.953939 149.953939 0 0 0-40.339394 79.127273L369.493333 620.606061zM486.322424 760.242424L411.151515 670.17697l-10.084848 115.510303a152.436364 152.436364 0 0 0 85.333333-25.832728z m21.643637-231.175757a150.419394 150.419394 0 0 0-80.523637-41.580606v2.249697l-2.947879 33.357575L416.892121 605.090909l16.213334-13.575757 74.860606-62.758788z m0 0" fill="#FFDD33" /></svg>