<svg class="svg-icon" style="width: 1em; height: 1em;vertical-align: middle;fill: currentColor;overflow: hidden;" viewBox="0 0 1024 1024" version="1.1" xmlns="http://www.w3.org/2000/svg"><path d="M955.675307 510.132907c1.46432-19.705173-38.21568-20.773547-56.777387-80.15872-15.59552-41.80992-68.430507-111.50336-122.835627-141.707947-78.62272-43.649707-179.606187-68.744533-264.605013-68.744533-84.995413 0-185.36448 20.753067-263.959893 64.385706-54.401707 30.204587-107.04896 104.260267-122.64448 146.066774-18.561707 59.38176-57.99936 60.450133-56.53504 80.15872-1.71008 18.640213 37.79584 18.466133 57.166506 78.155093 17.063253 40.608427 79.561387 127.563093 134.017707 163.403093 76.711253 50.469547 250.70592 52.7872 251.91424 52.780374 1.211733 0.006827 188.839253 0.781653 267.721387-58.08128 52.241067-38.987093 102.577493-117.49376 119.64416-158.109014 19.380907-59.685547 58.610347-59.511467 56.89344-78.148266z" fill="#96FF00" /><path d="M511.996587 824.958293h-0.689494c-1.665707 0-180.032853-1.52576-263.058773-56.149333-58.333867-38.38976-122.852693-127.85664-141.643093-172.581547a19.47648 19.47648 0 0 1-0.597334-1.614506c-9.642667-29.709653-24.398507-40.840533-36.256426-49.783467-9.632427-7.266987-22.71232-17.13152-21.94432-34.843307-0.53248-17.72544 11.956907-27.723093 22.050133-35.79904 11.71456-9.376427 26.29632-21.0432 35.447467-50.31936a18.944 18.944 0 0 1 0.3584-1.047893c16.4864-44.199253 71.492267-123.286187 131.8912-156.81536 75.523413-41.929387 177.916587-66.962773 273.89952-66.962773 90.105173 0 195.304107 27.327147 274.54464 71.318186 56.73984 31.501653 114.107733 104.260267 132.08576 152.456534 0.126293 0.34816 0.24576 0.69632 0.354986 1.047893 9.147733 29.262507 23.801173 40.92928 35.577174 50.29888 10.144427 8.072533 22.69184 18.06336 22.162773 35.812693 0.77824 17.681067-12.233387 27.552427-21.814613 34.82624-11.78624 8.946347-26.46016 20.084053-36.109654 49.80736-0.177493 0.546133-0.375467 1.082027-0.600746 1.611094-17.85856 42.50624-70.345387 124.849493-126.272854 166.591146-80.93696 60.402347-259.293867 62.14656-279.384746 62.14656zM144.68096 581.096107c17.046187 39.816533 76.997973 121.1904 126.081707 153.494186 70.90176 46.646613 239.086933 49.394347 240.766293 49.408h0.467627c7.492267 0 183.333547-0.617813 254.89408-54.012586 47.36-35.345067 95.648427-108.834133 112.694613-148.882774 13.64992-41.314987 36.396373-58.579627 50.0224-68.92544 1.00352-0.761173 2.143573-1.62816 3.2256-2.471253-1.396053-1.163947-2.976427-2.420053-4.324693-3.49184-13.499733-10.745173-36.05504-28.699307-48.981334-69.556907-13.312-35.126613-61.0816-101.430613-113.411413-130.484906-73.519787-40.813227-171.10016-66.167467-254.665387-66.167467-89.340587 0-184.302933 23.108267-254.020266 61.812053-48.960853 27.180373-98.7648 96.628053-113.21344 134.84032-12.91264 40.81664-35.341653 58.76736-48.769707 69.512534-1.334613 1.068373-2.901333 2.321067-4.283733 3.485013 1.088853 0.846507 2.24256 1.713493 3.252906 2.47808 13.718187 10.338987 36.604587 27.603627 50.264747 68.962987z" fill="#80E200" /><path d="M588.427947 715.195733m-7.263574 0a7.263573 7.263573 0 1 0 14.527147 0 7.263573 7.263573 0 1 0-14.527147 0Z" fill="#FFFFFF" /><path d="M666.85952 697.76384m-7.26016 0a7.26016 7.26016 0 1 0 14.52032 0 7.26016 7.26016 0 1 0-14.52032 0Z" fill="#FFFFFF" /><path d="M745.29792 684.694187m-7.26016 0a7.26016 7.26016 0 1 0 14.52032 0 7.26016 7.26016 0 1 0-14.52032 0Z" fill="#FFFFFF" /><path d="M806.301013 636.760747m-7.263573 0a7.263573 7.263573 0 1 0 14.527147 0 7.263573 7.263573 0 1 0-14.527147 0Z" fill="#FFFFFF" /><path d="M754.01216 636.760747m-7.263573 0a7.263573 7.263573 0 1 0 14.527146 0 7.263573 7.263573 0 1 0-14.527146 0Z" fill="#FFFFFF" /><path d="M618.929493 649.833813m-7.263573 0a7.263573 7.263573 0 1 0 14.527147 0 7.263573 7.263573 0 1 0-14.527147 0Z" fill="#FFFFFF" /><path d="M719.148373 649.833813m-7.263573 0a7.263573 7.263573 0 1 0 14.527147 0 7.263573 7.263573 0 1 0-14.527147 0Z" fill="#FFFFFF" /><path d="M701.723307 697.76384m-7.26016 0a7.26016 7.26016 0 1 0 14.52032 0 7.26016 7.26016 0 1 0-14.52032 0Z" fill="#FFFFFF" /><path d="M653.786453 732.627627m-7.26016 0a7.26016 7.26016 0 1 0 14.52032 0 7.26016 7.26016 0 1 0-14.52032 0Z" fill="#FFFFFF" /><path d="M300.823893 671.62112m-7.263573 0a7.263573 7.263573 0 1 0 14.527147 0 7.263573 7.263573 0 1 0-14.527147 0Z" fill="#FFFFFF" /><path d="M797.58336 580.113067m-7.263573 0a7.263573 7.263573 0 1 0 14.527146 0 7.263573 7.263573 0 1 0-14.527146 0Z" fill="#FFFFFF" /><path d="M849.87904 527.8208m-7.263573 0a7.263573 7.263573 0 1 0 14.527146 0 7.263573 7.263573 0 1 0-14.527146 0Z" fill="#FFFFFF" /><path d="M823.732907 445.026987m-7.263574 0a7.263573 7.263573 0 1 0 14.527147 0 7.263573 7.263573 0 1 0-14.527147 0Z" fill="#FFFFFF" /><path d="M475.122347 723.9168m-7.26016 0a7.26016 7.26016 0 1 0 14.52032 0 7.26016 7.26016 0 1 0-14.52032 0Z" fill="#FFFFFF" /><path d="M332.407467 337.752747c-66.5088 17.390933-112.366933 67.62496-133.799254 132.693333" fill="#7CBC00" /><path d="M198.611627 490.929493a20.483413 20.483413 0 0 1-19.456-26.893653c24.958293-75.769173 77.544107-127.655253 148.0704-146.097493a20.48 20.48 0 0 1 10.36288 39.6288c-56.620373 14.80704-99.068587 57.16992-119.53152 119.28576a20.483413 20.483413 0 0 1-19.44576 14.076586z" fill="#FFFFFF" /><path d="M408.490667 317.566293m-27.234987 0a27.234987 27.234987 0 1 0 54.469973 0 27.234987 27.234987 0 1 0-54.469973 0Z" fill="#FFFFFF" /></svg>