<svg class="svg-icon" style="width: 1em;height: 1em;vertical-align: middle;fill: currentColor;overflow: hidden;" viewBox="0 0 1024 1024" version="1.1" xmlns="http://www.w3.org/2000/svg"><path d="M514.585859 795.410101c-39.305051 1.034343-78.092929-6.206061-114.29495-21.721212-18.10101-7.757576-37.753535-10.343434-57.406061-8.274748-45.511111 6.723232-82.747475-26.892929-76.541414-71.886868 3.10303-27.927273 0.517172-55.854545-7.757575-82.230303-29.99596-109.640404-1.034343-206.351515 62.060606-297.373738C384.258586 222.90101 452.525253 209.454545 545.09899 244.105051c135.49899 50.165657 226.521212 146.359596 263.240404 288.064646 17.066667 66.19798 1.034343 124.121212-54.820202 169.632323-71.886869 59.474747-153.6 93.608081-238.933333 93.608081z m0 0" fill="#36A511" /><path d="M795.927273 576.646465c-1.034343 92.573737-71.369697 145.325253-167.563637 118.432323-143.773737-39.822222-237.381818-134.981818-281.341414-278.238384-7.240404-23.272727-8.791919-47.579798-4.654545-71.886869C356.331313 273.583838 413.220202 235.830303 488.727273 248.242424c98.779798 16.549495 172.735354 72.40404 233.761616 148.428283 35.167677 44.476768 61.543434 93.608081 70.335353 151.014141 1.551515 9.826263 1.551515 19.652525 3.103031 28.961617z m0 0" fill="#FFFFFF" /><path d="M547.684848 519.757576c-4.137374 17.583838-1.551515 39.822222-8.791919 61.026262-4.137374 12.412121-11.377778 14.480808-20.169697 8.79192-26.375758-17.583838-49.131313-40.339394-66.715151-66.715152-6.206061-9.309091-3.10303-16.032323 7.757576-19.135353 17.066667-5.171717 34.133333-10.860606 51.2-16.549495 28.961616-9.826263 38.270707-2.585859 36.719191 32.581818z m48.614142-99.814142c3.620202-17.583838 1.034343-39.822222 8.791919-61.026262 4.654545-12.412121 11.377778-13.963636 20.686869-7.240404 24.824242 17.583838 46.545455 39.305051 64.646464 64.129293 7.240404 10.343434 5.171717 18.10101-8.274747 21.721212-16.549495 4.654545-32.581818 10.860606-49.131313 16.032323-29.99596 8.791919-37.753535 1.551515-36.719192-33.616162z m110.674747 40.339394c13.446465 4.654545 23.789899 15.515152 27.410101 28.961616 5.171717 15.515152 9.309091 31.547475 12.412122 48.09697 2.585859 12.412121-3.10303 18.618182-15.515152 12.412121-36.20202-18.10101-71.886869-36.719192-108.088889-54.820202-4.654545-1.551515-7.240404-5.688889-7.240404-10.343434 0-6.206061 5.171717-7.240404 9.309091-8.791919 25.858586-10.860606 53.785859-16.032323 81.713131-15.515152z m-146.359596 136.533334c2.585859-29.99596 4.654545-52.234343 6.723233-74.989899 0-3.620202-1.034343-8.274747 3.620202-10.343435 4.137374-1.034343 8.274747 0.517172 10.343434 4.137374 25.341414 37.236364 53.785859 72.40404 71.886869 114.29495 5.171717 11.377778-1.034343 17.066667-12.412121 14.480808-18.10101-3.620202-36.20202-8.791919-53.785859-14.99798-14.480808-4.654545-24.824242-17.583838-26.375758-32.581818z m22.755556-246.173738c-2.068687 22.238384-4.137374 44.993939-6.206061 67.232323 0 3.620202 1.034343 8.791919-3.620202 10.343435-4.654545 1.034343-9.826263-3.620202-12.412121-7.757576-21.20404-27.410101-39.822222-55.337374-56.888889-84.816162-4.654545-8.791919-9.826263-17.583838-13.446464-26.375757-4.137374-9.309091-0.517172-16.549495 9.309091-14.480808 21.721212 4.654545 44.993939 6.723232 64.129292 18.618182 12.929293 7.757576 20.686869 22.238384 19.135354 37.236363zM457.179798 478.90101c-25.341414 1.551515-38.270707-5.171717-46.545455-27.410101-5.688889-16.549495-9.826263-33.09899-13.446464-50.165656-2.585859-9.826263 4.654545-14.99798 12.412121-11.377778 38.270707 18.10101 76.541414 37.236364 114.294949 56.888889 9.826263 5.171717 4.137374 13.963636-5.171717 17.066666-20.169697 6.723232-39.822222 16.032323-61.543434 14.99798z m150.49697 30.513131c40.856566 20.169697 83.264646 38.270707 118.432323 68.783839 12.929293 11.377778 13.963636 24.307071 0.517172 37.753535-20.686869 20.169697-28.961616 22.755556-44.99394 9.309091-11.894949-10.860606-19.135354-25.341414-27.927272-38.270707-17.066667-24.307071-33.616162-49.131313-50.165657-73.438384l4.137374-4.137374zM536.307071 430.286869C497.00202 410.634343 456.145455 393.050505 421.494949 364.606061c-17.583838-14.480808-18.10101-26.375758-3.10303-41.373738 20.686869-20.686869 33.616162-23.272727 47.579798-4.137374 25.858586 35.167677 49.648485 71.886869 74.472727 107.571718l-4.137373 3.620202z m59.991919 52.751515c1.034343 9.309091-4.137374 11.894949-13.446465 10.860606-13.446465-2.068687-32.581818-21.20404-34.650505-34.650505-1.551515-8.791919 1.034343-13.963636 11.377778-13.446465 14.480808 0.517172 35.684848 21.721212 36.719192 37.236364z m0 0" fill="#167203" /></svg>